<svg width="36" height="36" fill="none" xmlns="http://www.w3.org/2000/svg"><path fill-rule="evenodd" clip-rule="evenodd" d="M0 5.625A5.625 5.625 0 015.625 0h24.75A5.625 5.625 0 0136 5.625v24.75A5.625 5.625 0 0130.375 36H5.625A5.625 5.625 0 010 30.375V5.625zM18 9c4.95 0 9 4.05 9 9a9.08 9.08 0 01-7.762 9v-6.413h2.137l.45-2.587H19.35v-1.688c0-.675.337-1.35 1.462-1.35h1.125v-2.25s-1.012-.224-2.024-.224c-2.026 0-3.375 1.237-3.375 3.487V18h-2.25v2.587h2.25v6.3C12.262 26.212 9 22.5 9 18c0-4.95 4.05-9 9-9z" fill="#fff"/></svg>