<svg width="36" height="36" fill="none" xmlns="http://www.w3.org/2000/svg"><path d="M18 21.15A3.144 3.144 0 0114.85 18c0-1.688 1.35-3.15 3.15-3.15 1.688 0 3.15 1.35 3.15 3.15 0 1.688-1.462 3.15-3.15 3.15z" fill="#fff"/><path fill-rule="evenodd" clip-rule="evenodd" d="M21.825 10.35h-7.65c-.9.113-1.35.225-1.688.338-.45.112-.787.337-1.124.675-.268.267-.394.534-.546.856-.04.086-.083.175-.13.269-.017.052-.037.107-.058.165-.118.322-.279.761-.279 1.522v7.65c.113.9.225 1.35.338 1.688.112.45.337.787.675 1.124.267.268.534.394.856.546.086.04.175.082.269.13.052.017.107.037.165.059.322.117.761.278 1.522.278h7.65c.9-.112 1.35-.225 1.688-.337.45-.113.787-.338 1.124-.675.268-.268.394-.535.546-.857.04-.085.083-.175.13-.268.017-.053.037-.108.059-.167.117-.321.278-.76.278-1.521v-7.65c-.112-.9-.225-1.35-.337-1.688-.113-.45-.338-.787-.675-1.124-.268-.268-.535-.394-.857-.546a10.53 10.53 0 01-.268-.13c-.053-.017-.108-.037-.167-.058a3.955 3.955 0 00-1.521-.279zM18 13.163A4.802 4.802 0 0013.162 18c0 2.7 2.138 4.837 4.838 4.837S22.837 20.7 22.837 18c0-2.7-2.137-4.838-4.837-4.838zm6.075-.113a1.125 1.125 0 11-2.25 0 1.125 1.125 0 012.25 0z" fill="#fff"/><path fill-rule="evenodd" clip-rule="evenodd" d="M0 5.625A5.625 5.625 0 015.625 0h24.75A5.625 5.625 0 0136 5.625v24.75A5.625 5.625 0 0130.375 36H5.625A5.625 5.625 0 010 30.375V5.625zm14.175 3.037h7.65c1.012.113 1.688.225 2.25.45.675.338 1.125.563 1.688 1.126a4.9 4.9 0 011.124 1.687c.226.563.45 1.237.45 2.25v7.65c-.112 1.012-.224 1.688-.45 2.25-.337.675-.562 1.125-1.125 1.688a4.9 4.9 0 01-1.687 1.124 5.632 5.632 0 01-2.25.45h-7.65c-1.013-.112-1.688-.224-2.25-.45-.675-.337-1.125-.562-1.688-1.125a4.912 4.912 0 01-1.124-1.687 5.632 5.632 0 01-.45-2.25v-7.65c.112-1.013.224-1.688.45-2.25.337-.675.562-1.125 1.125-1.688a4.912 4.912 0 011.687-1.124 5.629 5.629 0 012.25-.45z" fill="#fff"/></svg>