<svg width="36" height="36" fill="none" xmlns="http://www.w3.org/2000/svg"><path fill-rule="evenodd" clip-rule="evenodd" d="M5.625 0h24.75A5.625 5.625 0 0136 5.625v24.75A5.625 5.625 0 0130.375 36H5.625A5.625 5.625 0 010 30.375V5.625A5.625 5.625 0 015.625 0zm3.6 14.963V27h3.825V14.963H9.225zM9 11.137c0 1.237.9 2.137 2.137 2.137 1.238 0 2.138-.9 2.138-2.138 0-1.237-.9-2.137-2.138-2.137A2.137 2.137 0 009 11.137zM23.175 27h3.6v-7.425c0-3.712-2.25-4.95-4.387-4.95-1.913 0-3.263 1.238-3.6 2.025v-1.687h-3.6V27h3.824v-6.413c0-1.687 1.125-2.587 2.25-2.587s1.913.563 1.913 2.475V27z" fill="#fff"/></svg>