<svg width="36" height="36" fill="none" xmlns="http://www.w3.org/2000/svg"><path d="M20.925 18L16.2 15.3v5.4l4.725-2.7z" fill="#fff"/><path fill-rule="evenodd" clip-rule="evenodd" d="M0 5.625A5.625 5.625 0 015.625 0h24.75A5.625 5.625 0 0136 5.625v24.75A5.625 5.625 0 0130.375 36H5.625A5.625 5.625 0 010 30.375V5.625zm24.975 6.412a2.23 2.23 0 011.575 1.575C27 15.076 27 18 27 18s0 2.925-.337 4.387a2.228 2.228 0 01-1.576 1.575C23.625 24.3 18 24.3 18 24.3s-5.738 0-7.088-.338a2.228 2.228 0 01-1.575-1.575C9 20.925 9 18 9 18s0-2.925.225-4.387a2.228 2.228 0 011.575-1.575c1.462-.338 7.087-.338 7.087-.338s5.738 0 7.088.338z" fill="#fff"/></svg>